<svg xmlns="http://www.w3.org/2000/svg" viewBox="0 0 400 300" width="100%" height="100%">
  <defs>
    <radialGradient id="bg-312001" cx="50%" cy="40%" r="70%">
      <stop offset="0%" stop-color="#3D0E13" />
      <stop offset="100%" stop-color="#1A0507" />
    </radialGradient>
    <linearGradient id="aviator-grad" x1="0%" y1="0%" x2="0%" y2="100%">
      <stop offset="0%" stop-color="#E51937" stop-opacity="0.8"/>
      <stop offset="100%" stop-color="#E51937" stop-opacity="0"/>
    </linearGradient>
    <filter id="glow-312001" x="-20%" y="-20%" width="140%" height="140%">
      <feGaussianBlur stdDeviation="8" result="blur" />
      <feComposite in="SourceGraphic" in2="blur" operator="over" />
    </filter>
  </defs>

  <!-- Background Base -->
  <rect width="400" height="300" fill="url(#bg-312001)" />

  <!-- Ambient Glow -->
  <circle cx="200" cy="120" r="110" fill="#E51937" opacity="0.12" filter="url(#glow-312001)" />

  <!-- Grid Tech Lines -->
  <g opacity="0.08" stroke="#FFFFFF" stroke-width="1">
    <line x1="0" y1="50" x2="400" y2="50" />
    <line x1="0" y1="100" x2="400" y2="100" />
    <line x1="0" y1="150" x2="400" y2="150" />
    <line x1="0" y1="200" x2="400" y2="200" />
    <line x1="100" y1="0" x2="100" y2="300" />
    <line x1="200" y1="0" x2="200" y2="300" />
    <line x1="300" y1="0" x2="300" y2="300" />
  </g>

  <!-- Game Vector Illustration -->
  
      <g transform="translate(200, 130)">
        <!-- Flight Multiplier Graph -->
        <path d="M -160,70 Q -60,65 0,30 T 120,-45" fill="none" stroke="#E51937" stroke-width="4" stroke-linecap="round"/>
        <path d="M -160,70 Q -60,65 0,30 T 120,-45 L 120,70 Z" fill="url(#aviator-grad)" opacity="0.25"/>
        <!-- Red Propeller Plane -->
        <g transform="translate(120, -45) rotate(-22)">
          <ellipse cx="0" cy="0" rx="36" ry="12" fill="#E51937" stroke="#FF8595" stroke-width="2"/>
          <path d="M -20, -5 L -35, -20 L -25, -22 L -10, -5 Z" fill="#C2122B"/>
          <path d="M 5, 2 L -5, 28 L 5, 30 L 15, 2 Z" fill="#B30E25"/>
          <ellipse cx="28" cy="0" rx="4" ry="10" fill="#FFBCC4"/>
          <circle cx="20" cy="-2" r="5" fill="#FFFFFF" opacity="0.9"/>
          <!-- Speed blur trails -->
          <line x1="-38" y1="0" x2="-65" y2="0" stroke="#FF455E" stroke-width="2" stroke-dasharray="4,4"/>
          <line x1="-38" y1="-8" x2="-55" y2="-8" stroke="#FF455E" stroke-width="1.5" stroke-dasharray="3,3"/>
        </g>
        <!-- Multiplier Tag -->
        <rect x="35" y="-95" width="85" height="30" rx="15" fill="#E51937" stroke="#FFA3AE" stroke-width="1.5"/>
        <text x="77" y="-75" fill="#FFFFFF" font-family="Arial, sans-serif" font-weight="900" font-size="16" text-anchor="middle">18.42x</text>
      </g>
    

  <!-- Bottom Dark Gradient for Title Legibility -->
  <rect y="210" width="400" height="90" fill="url(#bottom-fade)" />
  <defs>
    <linearGradient id="bottom-fade" x1="0%" y1="0%" x2="0%" y2="100%">
      <stop offset="0%" stop-color="#000000" stop-opacity="0"/>
      <stop offset="60%" stop-color="#050505" stop-opacity="0.85"/>
      <stop offset="100%" stop-color="#0A0A0A" stop-opacity="0.98"/>
    </linearGradient>
  </defs>

  <!-- Provider Badge Top Left -->
  <rect x="14" y="14" width="76" height="22" rx="11" fill="#141414" stroke="#333333" stroke-width="1"/>
  <text x="52" y="29" fill="#D1AE52" font-family="system-ui, -apple-system, sans-serif" font-weight="800" font-size="10" text-anchor="middle" letter-spacing="1">SPRIBE</text>

  <!-- Game Title and Subtitle -->
  <text x="20" y="260" fill="#FFFFFF" font-family="system-ui, -apple-system, sans-serif" font-weight="900" font-size="19" letter-spacing="0.5">AVIATOR</text>
  <text x="20" y="280" fill="#A0A0A0" font-family="system-ui, -apple-system, sans-serif" font-weight="600" font-size="11">Spribe Crash Engine</text>

  <!-- Border Accent -->
  <rect x="0" y="0" width="400" height="300" fill="none" stroke="#2B2B2B" stroke-width="2" rx="1" />
</svg>